<svg xmlns="http://www.w3.org/2000/svg" width="11.335" height="16" viewBox="0 0 11.335 16"><g transform="translate(-19.516 -1.207)"><path d="M44.671,1.832h-.9l.938,1.121v.534H42.775V2.862h.938l-.938-1.121V1.207h1.9v.625Zm-2.279,0h-.9l.938,1.121v.534H40.5V2.862h.938L40.5,1.741V1.207h1.9Zm-2.256.026h-.973v.978h.973v.651H38.471V1.207h1.665Z" transform="translate(-16.405)" fill="#131313"/><path d="M20.548,37.305,19.516,25.893H30.851L29.818,37.3l-4.642,1.269Z" transform="translate(0 -21.366)" fill="#1572b6"/><path d="M64,44.853l3.96-1.1.932-10.436H64Z" transform="translate(-39.133 -28.685)" fill="#33a9dc"/><path d="M64,46.709h1.982l.137-1.534H64v-1.5h3.757l-.036.4-.368,4.128H64Z" transform="translate(-38.961 -37.17)" fill="#fff"/><path d="M42.926,84.571l-.007,0-1.668-.451-.107-1.195h-1.5l.21,2.352,3.069.852.007,0V84.571Z" transform="translate(-17.615 -71.444)" fill="#ebebeb"/><path d="M65.879,76.886,65.7,78.892l-1.671.451V80.9l3.071-.851.023-.253.261-2.912Z" transform="translate(-38.964 -66.205)" fill="#fff"/><path d="M39.891,43.677v1.5H36.272l-.03-.337-.068-.759-.036-.4Zm-.005,3.032v1.5H38.238l-.03-.337-.068-.76-.036-.4Z" transform="translate(-14.558 -37.17)" fill="#ebebeb"/></g></svg>