<svg xmlns="http://www.w3.org/2000/svg" width="16.07" height="16.07" viewBox="0 0 16.07 16.07"><g transform="translate(-1.998 -1.999)"><path d="M17.764,9.318,10.749,2.3a1.033,1.033,0,0,0-1.463,0L7.828,3.759,9.676,5.607a1.229,1.229,0,0,1,1.556,1.567l1.779,1.779a1.23,1.23,0,1,1-.737.694L10.613,7.986v4.371A1.229,1.229,0,1,1,9.6,12.321V7.91A1.232,1.232,0,0,1,8.932,6.3L7.113,4.475,2.3,9.287a1.033,1.033,0,0,0,0,1.464l7.015,7.013a1.033,1.033,0,0,0,1.463,0l6.983-6.985a1.033,1.033,0,0,0,0-1.464" transform="translate(0)" fill="#dd4c35"/><path d="M11.627,5.067l1.848,1.848a1.229,1.229,0,0,1,1.556,1.567L16.81,10.26a1.23,1.23,0,1,1-.737.694L14.411,9.294v4.371a1.229,1.229,0,1,1-1.012-.036V9.218A1.232,1.232,0,0,1,12.73,7.6l-1.819-1.82" transform="translate(-3.798 -1.308)" fill="#fff"/></g></svg>