<svg xmlns="http://www.w3.org/2000/svg" width="11.336" height="16" viewBox="0 0 11.336 16"><g transform="translate(-221.807 -89.47)"><path d="M222.839,223.093l-1.032-11.571h11.336l-1.033,11.569-4.642,1.287Z" transform="translate(0 -118.908)" fill="#e44d26"/><path d="M441.807,259.172l3.751-1.04.883-9.886h-4.634Z" transform="translate(-214.332 -154.686)" fill="#f16529"/><path d="M307.241,306.2h-1.878l-.13-1.453h2.008V303.33h-3.558l.034.381.349,3.911h3.176Zm0,3.686-.006,0-1.58-.427-.1-1.132h-1.424l.2,2.228,2.907.807.007,0Z" transform="translate(-79.767 -208.35)" fill="#ebebeb"/><path d="M262.745,89.47h.721v.712h.66V89.47h.721v2.158h-.721v-.722h-.66v.722h-.721Zm3.05.716h-.635V89.47h1.991v.716h-.635v1.442H265.8V90.186Zm1.672-.716h.752l.463.758.462-.758h.752v2.158h-.718V90.558l-.5.767h-.012l-.5-.767v1.069h-.706V89.47Zm2.788,0h.721v1.444h1.014v.713h-1.736Z" transform="translate(-39.883)"/><path d="M441.617,306.2v1.419h1.747l-.165,1.84-1.583.427v1.476l2.909-.806.021-.24.333-3.736.035-.381h-3.3Zm0-2.872v1.419h3.428l.028-.319.065-.719.034-.381Z" transform="translate(-214.147 -208.35)" fill="#fff"/></g></svg>