<svg xmlns="http://www.w3.org/2000/svg" width="16.609" height="16" viewBox="0 0 16.609 16"><path d="M2.769,7.755A6.979,6.979,0,0,0,2.6,14.864c.027.054.055.107.082.16l.053.1.033.058.059.1q.052.092.107.184l.061.1c.041.065.082.13.124.195l.053.082c.059.087.118.175.18.26l.005.007.03.041c.053.074.109.147.164.219l.062.079q.075.094.152.187l.058.069c.069.081.14.162.211.242l0,0,.008.009c.07.077.142.152.215.227l.069.069c.056.057.114.113.172.168l.07.067c.077.073.155.144.235.214l0,0,.041.035c.07.061.142.121.214.18L5.16,18q.088.071.178.139l.1.072q.1.073.2.143l.073.052.02.014c.064.044.129.086.194.128L6,18.6c.1.063.2.126.3.186l.084.047q.113.065.228.128l.126.065c.054.028.108.057.163.085l.038.018.067.032c.085.041.172.081.259.12l.055.025q.15.065.3.125l.073.029c.094.036.189.072.285.105l.036.012c.1.037.211.071.317.1l.077.023a3.106,3.106,0,0,0,.328.092c7.112,1.3,9.177-4.274,9.177-4.274-1.735,2.26-4.815,2.857-7.732,2.193-.111-.025-.218-.059-.326-.091L9.783,17.6q-.158-.048-.314-.1l-.043-.016c-.093-.033-.185-.067-.277-.1l-.078-.031q-.15-.059-.3-.124l-.06-.026c-.085-.038-.168-.077-.252-.117l-.073-.035c-.065-.032-.13-.066-.195-.1-.043-.023-.087-.044-.13-.068-.079-.042-.156-.086-.233-.131l-.079-.044c-.1-.06-.2-.123-.3-.186l-.082-.055c-.073-.047-.145-.095-.216-.144l-.07-.049q-.1-.073-.2-.148l-.091-.069c-.062-.047-.124-.1-.185-.144l-.082-.066c-.078-.064-.154-.128-.23-.194l-.025-.021c-.082-.072-.162-.146-.242-.22l-.068-.065c-.059-.056-.117-.112-.174-.17l-.068-.068Q5.6,15,5.5,14.885l-.011-.011c-.074-.081-.146-.163-.216-.246l-.057-.067c-.053-.063-.1-.127-.156-.192L5,14.3c-.061-.079-.121-.159-.18-.239A7.5,7.5,0,0,1,3.917,6.3m3.417-.325a5.113,5.113,0,0,0-.176,5.2,6.744,6.744,0,0,0,.47.785,3.73,3.73,0,0,0,.547.684c.077.084.157.167.239.248l.063.062c.079.077.16.153.244.226l.01.009,0,0c.092.081.188.159.285.236l.065.05c.1.075.2.148.3.217l.009.007c.045.031.09.06.136.09l.064.043c.073.047.146.092.221.135l.031.018c.064.037.13.074.2.109l.069.036.136.071.021.009c.094.046.188.091.285.133l.063.026c.077.033.155.065.233.095l.1.037c.071.026.142.05.214.075l.1.031a2.373,2.373,0,0,0,.31.09c5.491.91,6.759-3.318,6.759-3.318a5.216,5.216,0,0,1-5.717,1.818c-.1-.028-.208-.057-.311-.09l-.093-.03q-.11-.035-.217-.075l-.1-.037c-.079-.03-.157-.062-.234-.094l-.063-.027q-.145-.063-.286-.133c-.048-.024-.1-.049-.144-.073l-.083-.043c-.061-.033-.122-.067-.182-.1l-.043-.025q-.112-.065-.22-.134l-.066-.044-.143-.094c-.1-.07-.2-.143-.3-.217l-.067-.053a6.62,6.62,0,0,1-2.242-3.2A4.959,4.959,0,0,1,8.2,4.747m2.97-.1a3.2,3.2,0,0,0-.253,3.087,4.348,4.348,0,0,0,2.5,2.333c.045.017.091.032.136.047l.06.019a1.752,1.752,0,0,0,.2.057A3.387,3.387,0,0,0,17.88,8.315c-.72,1.037-1.931,1.286-3.416.926-.117-.028-.246-.071-.359-.111A4.343,4.343,0,0,1,12.93,8.5,3.647,3.647,0,0,1,11.642,4" transform="translate(-1.714 -3.997)" fill="#0868ac"/></svg>