<svg xmlns="http://www.w3.org/2000/svg" width="14.005" height="16" viewBox="0 0 14.005 16"><g transform="translate(-53 -377.011)"><g transform="translate(57.419 377.011)"><path d="M15.884.087l.31.582a1.738,1.738,0,0,0,.234.291,8.128,8.128,0,0,1,.727.822,7.143,7.143,0,0,1,1.132,2.282,5.612,5.612,0,0,1,.24,1.549,5.466,5.466,0,0,1-1.6,4.034,4.607,4.607,0,0,1-.57.487c-.107,0-.158-.082-.2-.158A1.3,1.3,0,0,1,16,9.52a2.2,2.2,0,0,1-.051-.575V8.856c-.009-.019-.1-8.725-.066-8.769Z" transform="translate(-13.314 -0.055)" fill="#599636"/><path d="M11.384.012c-.013-.025-.025-.006-.038.006a.585.585,0,0,1-.107.348,1.668,1.668,0,0,1-.278.278A6.059,6.059,0,0,0,9.6,2.377,6.96,6.96,0,0,0,8.817,5.21a9.424,9.424,0,0,0,.227,2,6.057,6.057,0,0,0,1.587,2.5,6.935,6.935,0,0,0,.562.481c.057,0,.063-.051.076-.089a1.734,1.734,0,0,0,.057-.247l.127-.948Z" transform="translate(-8.813 0)" fill="#6cac48"/><path d="M15.877,25.791a.866.866,0,0,1,.158-.386.4.4,0,0,1-.177-.164,1.174,1.174,0,0,1-.094-.209,3.61,3.61,0,0,1-.133-.815v-.164a.788.788,0,0,0-.038.272,6.3,6.3,0,0,1-.114.854.759.759,0,0,1-.1.329.126.126,0,0,0,.006.044,3.775,3.775,0,0,1,.164,1.024V26.7c0,.152-.006.12.12.17a.554.554,0,0,1,.158.063c.038,0,.044-.032.044-.057l-.019-.209v-.582a1.539,1.539,0,0,1,.025-.3Z" transform="translate(-12.996 -15.328)" fill="#c2bfbf"/></g><g transform="translate(53 389.967)"><path d="M87.259,99.14c.02-.038.039-.072.055-.107a.044.044,0,0,1,.048-.026c.133,0,.267.008.4.009.113,0,.227,0,.341,0s.256-.008.384,0a1.175,1.175,0,0,1,.49.114.92.92,0,0,1,.418.41,1.026,1.026,0,0,1,.11.37,1.3,1.3,0,0,1-.053.555.987.987,0,0,1-.412.525,1.337,1.337,0,0,1-.494.191,3.065,3.065,0,0,1-.565.025c-.207,0-.413,0-.62-.006-.036,0-.041-.007-.032-.042l.009-.032c.02-.063.031-.066.1-.077a.333.333,0,0,0,.128-.049c.022-.014.031-.052.039-.081a.3.3,0,0,0,.008-.079q0-.6.008-1.21c0-.1,0-.2-.008-.306a.138.138,0,0,0-.127-.137c-.066-.013-.132-.023-.2-.035Zm1.893.977c-.009-.08-.013-.161-.028-.24a.824.824,0,0,0-.264-.485,1.031,1.031,0,0,0-.818-.217c-.068.006-.082.029-.083.1,0,.1,0,.2,0,.3q0,.471,0,.941c0,.089,0,.179,0,.268a.2.2,0,0,0,.125.2.828.828,0,0,0,.436.04.681.681,0,0,0,.512-.38A1.185,1.185,0,0,0,89.152,100.116Zm.573,1.068a.2.2,0,0,1,.042-.126c.007-.01.03-.01.046-.013l.135-.027a.1.1,0,0,0,.079-.089.7.7,0,0,0,.009-.093c0-.247.006-.494.007-.741s0-.495,0-.742v-.047a.126.126,0,0,0-.122-.132l-.171-.026c-.021,0-.029-.013-.021-.032a.574.574,0,0,1,.044-.094c.007-.011.03-.015.046-.014.082,0,.163.007.245.007l.711,0a.816.816,0,0,1,.392.089.426.426,0,0,1,.233.335.433.433,0,0,1-.142.4,1.179,1.179,0,0,1-.166.109l-.018.011c.052.019.1.035.148.055a.532.532,0,0,1,.31.29.559.559,0,0,1,.019.348.622.622,0,0,1-.321.4,1.034,1.034,0,0,1-.477.145c-.157.008-.314,0-.471.007h-.091l-.454-.011Zm.652-.717h0c0,.077,0,.155,0,.232a.755.755,0,0,0,.01.15.185.185,0,0,0,.13.158.786.786,0,0,0,.332.015.393.393,0,0,0,.31-.226.539.539,0,0,0,.036-.308.4.4,0,0,0-.218-.308.591.591,0,0,0-.26-.074c-.1,0-.206,0-.31-.007-.029,0-.033.014-.033.038C90.378,100.247,90.377,100.357,90.377,100.468Zm.22-.527c.056,0,.12,0,.184-.01a.28.28,0,0,0,.252-.189.5.5,0,0,0,.022-.181.354.354,0,0,0-.243-.345.971.971,0,0,0-.359-.039c-.049,0-.071.023-.072.072l-.007.646c0,.026.011.037.036.038l.189.008Z" transform="translate(-77.566 -99.007)" fill="#94795d" fill-rule="evenodd"/><path d="M4.882,106.419l-.009.111H4.646l-.417.006H4.215c-.02,0-.056,0-.057-.008a.468.468,0,0,1,0-.1s.014-.009.022-.011l.108-.024a.106.106,0,0,0,.094-.116c0-.079.007-.157.008-.236,0-.193,0-.386,0-.58a.1.1,0,0,0-.058-.1c-.05-.022-.1-.044-.151-.064-.024-.01-.055-.015-.052-.047s.033-.041.062-.048c.118-.027.236-.053.354-.082.038-.009.074-.025.12-.041a.627.627,0,0,1,.006.071l-.007.111a.05.05,0,0,0,.016.036c.006,0,.025,0,.034-.011a1.089,1.089,0,0,1,.328-.181.384.384,0,0,1,.463.158c.04.057.04.057.1.017a1.234,1.234,0,0,1,.3-.17.42.42,0,0,1,.562.269.825.825,0,0,1,.042.275l0,.624a.087.087,0,0,0,.066.1c.055.018.112.03.174.047l-.014.107h-.2c-.158,0-.317,0-.475.006-.028,0-.035-.006-.036-.032,0-.083-.005-.082.072-.1l.026-.007c.076-.021.1-.044.1-.121,0-.221.006-.443,0-.664a.308.308,0,0,0-.415-.292.612.612,0,0,0-.2.1.056.056,0,0,0-.023.057c.006.1.01.2.011.293,0,.171,0,.342,0,.513,0,.069.024.1.092.112l.1.023.019,0c0,.032,0,.065,0,.1s-.017.022-.034.022c-.1,0-.2-.006-.3-.006-.12,0-.24,0-.36.006H5.082c0-.035,0-.067,0-.1,0-.008.014-.019.024-.021l.118-.025A.087.087,0,0,0,5.3,106.3a4.717,4.717,0,0,0,0-.71.435.435,0,0,0-.038-.135.286.286,0,0,0-.355-.15.656.656,0,0,0-.206.1.094.094,0,0,0-.045.082q0,.354,0,.708v.091a.1.1,0,0,0,.091.111c.041.009.081.015.127.024Z" transform="translate(-4.126 -104.365)" fill="#50382b" fill-rule="evenodd"/><path d="M60.034,105.131a.225.225,0,0,1-.047.229c-.065.06-.147.04-.227.026.007.042.016.078.02.114a.534.534,0,0,1-.337.584.872.872,0,0,1-.3.067.109.109,0,0,0-.1.085.091.091,0,0,0,.075.1,1.642,1.642,0,0,0,.193.027c.138.016.278.023.415.048a.35.35,0,0,1,.285.425.638.638,0,0,1-.288.422.915.915,0,0,1-.82.136.446.446,0,0,1-.327-.34.227.227,0,0,1,.069-.231c.08-.072.167-.136.251-.2l.027-.027-.031-.022a.3.3,0,0,1-.18-.192.056.056,0,0,1,.028-.071l.14-.087a.765.765,0,0,0,.064-.044c.028-.021.025-.037-.008-.049a.458.458,0,0,1-.2-.133.5.5,0,0,1-.107-.366.489.489,0,0,1,.309-.434.764.764,0,0,1,.661-.016.547.547,0,0,0,.258.037A.258.258,0,0,0,60.034,105.131Zm-.806,1.493a.337.337,0,0,0-.312.117.256.256,0,0,0,0,.373.466.466,0,0,0,.3.135.635.635,0,0,0,.383-.058.307.307,0,0,0,.163-.336.254.254,0,0,0-.2-.189A1.308,1.308,0,0,0,59.228,106.625Zm-.322-1.049c.006.046.008.092.019.136a.352.352,0,0,0,.192.269.252.252,0,0,0,.367-.155.571.571,0,0,0-.013-.386.3.3,0,0,0-.107-.139.277.277,0,0,0-.415.088A.465.465,0,0,0,58.906,105.576Z" transform="translate(-52.208 -104.392)" fill="#4f382b" fill-rule="evenodd"/><path d="M43.217,105a.329.329,0,0,1,.013.066c0,.044,0,.087-.007.131v.038l.037-.028a.979.979,0,0,1,.337-.193.424.424,0,0,1,.532.289.923.923,0,0,1,.041.272c0,.206,0,.411.006.617,0,.074.009.087.079.108a.872.872,0,0,0,.121.027c.022,0,.032.012.031.034v.02c0,.085-.007.089-.089.089-.2,0-.4,0-.593,0-.059,0-.059,0-.065-.056v-.033c0-.05,0-.05.054-.057a.932.932,0,0,0,.1-.021.071.071,0,0,0,.054-.066.362.362,0,0,0,.005-.05c0-.225,0-.45-.011-.674a.288.288,0,0,0-.331-.277.477.477,0,0,0-.244.087.149.149,0,0,0-.058.136q0,.315.005.63c0,.046,0,.092.006.138a.076.076,0,0,0,.071.081c.047.01.095.016.145.025l0,.039c0,.09-.008.1-.1.1-.2,0-.409,0-.613,0-.032,0-.046-.01-.045-.041v-.013c-.005-.081,0-.084.074-.1l.036-.007c.083-.019.1-.041.106-.125,0-.267.005-.535.008-.8a.083.083,0,0,0-.05-.084l-.152-.064c-.028-.012-.06-.019-.061-.058s.028-.051.068-.06c.08-.016.161-.03.24-.05S43.131,105.028,43.217,105Z" transform="translate(-38.163 -104.291)" fill="#4f372b" fill-rule="evenodd"/><path d="M73.913,105.779a.753.753,0,0,1-.245.6.8.8,0,0,1-.858.114.584.584,0,0,1-.27-.278.877.877,0,0,1-.065-.588.641.641,0,0,1,.349-.439.825.825,0,0,1,.59-.083.645.645,0,0,1,.488.55C73.909,105.705,73.911,105.754,73.913,105.779Zm-.3.135H73.6c0-.024,0-.047,0-.071a.779.779,0,0,0-.127-.409.427.427,0,0,0-.333-.195.32.32,0,0,0-.342.242.9.9,0,0,0,.078.709.439.439,0,0,0,.242.208.327.327,0,0,0,.453-.238C73.592,106.079,73.6,106,73.61,105.914Z" transform="translate(-64.467 -104.37)" fill="#4f382b" fill-rule="evenodd"/><path d="M29.854,105.794a.806.806,0,0,1-.157.489.736.736,0,0,1-.467.271.7.7,0,0,1-.6-.143.607.607,0,0,1-.178-.262.9.9,0,0,1-.039-.513.632.632,0,0,1,.31-.426.82.82,0,0,1,.611-.11.63.63,0,0,1,.5.523C29.846,105.679,29.848,105.737,29.854,105.794Zm-.307.118h-.008v-.034a.8.8,0,0,0-.135-.458.425.425,0,0,0-.295-.183.327.327,0,0,0-.38.255.929.929,0,0,0,.049.628.474.474,0,0,0,.278.273.327.327,0,0,0,.453-.24C29.529,106.075,29.535,105.993,29.547,105.912Z" transform="translate(-25.555 -104.365)" fill="#4f372b" fill-rule="evenodd"/></g></g></svg>