<svg xmlns="http://www.w3.org/2000/svg" width="16.41" height="16" viewBox="0 0 16.41 16"><g transform="translate(-2 -2.35)"><path d="M3.167,3.517H18.41V18.35H3.167Z" transform="translate(-0.584 -0.583)" fill="#0c0824"/><path d="M2.684,3.034H17.726V17.666H2.684ZM2,18.35H18.41v-16H2ZM13.063,8.914c-.54,0-.725.274-.725.5,0,.246.123.417.848.793,1.074.52,1.407,1.019,1.407,1.751,0,1.094-.834,1.682-1.962,1.682a2.975,2.975,0,0,1-1.4-.293c-.048-.021-.055-.055-.055-.11V12.23c0-.069.034-.089.082-.055a2.538,2.538,0,0,0,1.374.4c.54,0,.766-.226.766-.533,0-.246-.157-.465-.848-.821-.971-.465-1.374-.938-1.374-1.723a1.681,1.681,0,0,1,1.887-1.613,3.144,3.144,0,0,1,1.224.192.151.151,0,0,1,.069.137v.938c0,.055-.034.089-.1.069a2.31,2.31,0,0,0-1.19-.308Zm-5.881.813c.157.013.28.013.554.013.8,0,1.552-.28,1.552-1.367,0-.869-.54-1.306-1.449-1.306-.274,0-.533.013-.656.021ZM5.965,6.094c0-.048.1-.082.151-.082.438-.021,1.087-.034,1.764-.034,1.894,0,2.633,1.039,2.633,2.366,0,1.737-1.258,2.482-2.8,2.482-.26,0-.349-.013-.533-.013v2.626c0,.055-.021.082-.082.082H6.048c-.055,0-.082-.021-.082-.082V6.1Z" fill="#31c5f0"/></g></svg>