<svg xmlns="http://www.w3.org/2000/svg" width="16.005" height="16" viewBox="0 0 16.005 16"><g transform="translate(-242.616 -375.624)"><path d="M67.858,59.971a11.219,11.219,0,0,0-1.844.156c-1.633.287-1.93.883-1.93,1.985v1.456h3.859v.485H62.636a2.4,2.4,0,0,0-2.411,1.935,7.032,7.032,0,0,0,0,3.877c.273,1.13.927,1.935,2.049,1.935h1.135V69.867a2.435,2.435,0,0,1,2.414-2.362h4.04a2.077,2.077,0,0,0,2.089-1.94V62.12a2.3,2.3,0,0,0-2.089-1.985,12.143,12.143,0,0,0-2.007-.156M65.771,61.14a.728.728,0,1,1-.727.732.729.729,0,0,1,.727-.732m0,0" transform="translate(182.664 315.653)" fill="#4586b9"/><path d="M98.313,90.556v1.7A2.33,2.33,0,0,1,95.9,94.515H91.667a2.1,2.1,0,0,0-1.93,2.1v3.635c0,1.034.909,1.641,1.93,1.937a7.051,7.051,0,0,0,4.013,0c.971-.279,1.93-.839,1.93-1.937V98.791H93.756v-.485h5.787c1.12,0,1.539-.776,1.93-1.935a6.5,6.5,0,0,0,0-3.877c-.279-1.107-.807-1.935-1.93-1.935m-3.617,9.2a.728.728,0,0,1,0,1.456.728.728,0,0,1,0-1.456m0,0" transform="translate(156.853 289.148)" fill="#ffe634"/></g></svg>