<svg xmlns="http://www.w3.org/2000/svg" width="17.967" height="16" viewBox="0 0 17.967 16"><g transform="translate(-175.7 -78)"><path d="M193.667,86c0-1.19-1.491-2.318-3.776-3.018.527-2.329.293-4.182-.74-4.775a1.606,1.606,0,0,0-.82-.205v.817a.848.848,0,0,1,.417.1c.5.286.714,1.373.546,2.772-.04.344-.106.707-.187,1.077a17.746,17.746,0,0,0-2.325-.4,17.864,17.864,0,0,0-1.523-1.831,5.4,5.4,0,0,1,3.076-1.718V78a6.126,6.126,0,0,0-3.659,1.963,6.13,6.13,0,0,0-3.659-1.948v.817a5.425,5.425,0,0,1,3.076,1.707,17.3,17.3,0,0,0-1.512,1.827,17.1,17.1,0,0,0-2.329.4c-.084-.366-.146-.721-.19-1.062-.172-1.4.04-2.487.535-2.776a.815.815,0,0,1,.421-.1v-.817a1.633,1.633,0,0,0-.828.205c-1.029.593-1.26,2.443-.729,4.764-2.278.7-3.761,1.827-3.761,3.014s1.491,2.318,3.776,3.018c-.527,2.329-.293,4.182.74,4.775a1.61,1.61,0,0,0,.824.205,6.126,6.126,0,0,0,3.658-1.963,6.131,6.131,0,0,0,3.659,1.948,1.633,1.633,0,0,0,.828-.205c1.029-.593,1.26-2.443.729-4.764C192.183,88.316,193.667,87.188,193.667,86ZM188.9,83.559c-.135.472-.3.959-.494,1.447-.15-.293-.308-.586-.48-.879s-.348-.579-.527-.857C187.917,83.347,188.419,83.442,188.9,83.559Zm-1.677,3.9c-.286.494-.579.963-.883,1.4-.546.048-1.1.073-1.655.073s-1.106-.026-1.648-.07q-.456-.654-.886-1.392-.417-.72-.762-1.458c.227-.491.483-.981.758-1.461s.579-.963.883-1.4c.546-.048,1.1-.073,1.655-.073s1.106.026,1.648.07q.456.654.886,1.392.417.72.762,1.458C187.749,86.489,187.5,86.98,187.221,87.459Zm1.183-.476c.2.491.366.981.505,1.458-.48.117-.985.216-1.509.293.179-.282.359-.571.527-.868S188.254,87.276,188.4,86.983Zm-3.713,3.908a15.093,15.093,0,0,1-1.018-1.172c.33.015.667.026,1.007.026s.685-.007,1.018-.026A14.3,14.3,0,0,1,184.691,90.891Zm-2.725-2.157c-.52-.077-1.022-.172-1.5-.289.135-.472.3-.959.494-1.447.15.293.308.586.48.879S181.787,88.455,181.966,88.734Zm2.706-7.621a15.1,15.1,0,0,1,1.018,1.172c-.33-.015-.667-.026-1.007-.026s-.685.007-1.018.026A14.3,14.3,0,0,1,184.672,81.113Zm-2.71,2.157c-.179.282-.359.571-.527.868s-.326.586-.476.879c-.2-.491-.366-.981-.505-1.458C180.933,83.446,181.439,83.347,181.962,83.27Zm-3.314,4.585c-1.3-.553-2.135-1.278-2.135-1.853s.839-1.3,2.135-1.853c.315-.135.659-.256,1.014-.37a17.591,17.591,0,0,0,.824,2.23,17.342,17.342,0,0,0-.813,2.219C179.311,88.115,178.967,87.99,178.648,87.855Zm1.97,5.233c-.5-.286-.714-1.373-.546-2.772.04-.344.106-.707.187-1.077a17.749,17.749,0,0,0,2.325.4,17.862,17.862,0,0,0,1.523,1.831,5.4,5.4,0,0,1-3.076,1.718A.874.874,0,0,1,180.618,93.088Zm8.687-2.791c.172,1.4-.04,2.487-.535,2.776a.815.815,0,0,1-.421.1,5.425,5.425,0,0,1-3.076-1.707,17.3,17.3,0,0,0,1.512-1.827,17.1,17.1,0,0,0,2.329-.4A10.256,10.256,0,0,1,189.305,90.3Zm1.41-2.443c-.315.135-.659.256-1.014.37a17.591,17.591,0,0,0-.824-2.23,17.342,17.342,0,0,0,.813-2.219c.363.114.707.238,1.029.374,1.3.553,2.135,1.278,2.135,1.853S192.011,87.306,190.715,87.855Z" transform="translate(0)" fill="#61dafb"/><circle cx="1.795" cy="1.795" r="1.795" transform="translate(182.885 84.207)" fill="#61dafb"/></g></svg>